<svg width="1628" height="830" viewBox="0 0 1628 830" fill="none" xmlns="http://www.w3.org/2000/svg">
<path d="M569.381 388.347L738.382 315.939V284.044L569.381 211.637V243.079L704.672 300.067L569.381 356.753V388.347Z" fill="white"/>
<path d="M569.381 467.802L738.382 395.395V363.499L569.381 291.092V322.534L704.672 379.523L569.381 436.209V467.802Z" fill="white"/>
<path d="M308.237 236.654L388.524 444.847H358.761L340.323 396.937H246.389L227.951 444.847H198.188L278.474 236.654H308.237ZM257.713 367.174H328.853L293.428 275.418L257.713 367.174Z" fill="white"/>
<path d="M412.334 290.227H450.081V242.606H478.683V290.227H529.497V318.828H478.683V416.246H529.497V444.847H478.683C474.811 444.847 471.133 444.121 467.649 442.669C464.164 441.121 461.115 439.088 458.502 436.572C455.889 433.958 453.808 430.909 452.259 427.425C450.807 423.941 450.081 420.214 450.081 416.246V318.828H412.334V290.227Z" fill="white"/>
<path d="M909.732 416.246C909.732 420.214 908.958 423.941 907.409 427.425C905.957 430.909 903.925 433.958 901.312 436.572C898.795 439.088 895.795 441.121 892.31 442.669C888.826 444.121 885.099 444.847 881.131 444.847H801.425C797.554 444.847 793.876 444.121 790.391 442.669C786.907 441.121 783.858 439.088 781.245 436.572C778.728 433.958 776.696 430.909 775.147 427.425C773.695 423.941 772.969 420.214 772.969 416.246V230.701H801.425V317.521C801.619 313.746 802.49 310.214 804.039 306.923C805.587 303.535 807.62 300.631 810.136 298.212C812.75 295.695 815.75 293.759 819.138 292.404C822.525 290.953 826.155 290.227 830.026 290.227H881.131C885.099 290.227 888.826 291.001 892.31 292.55C895.795 294.001 898.795 296.034 901.312 298.647C903.925 301.164 905.957 304.164 907.409 307.649C908.958 311.133 909.732 314.859 909.732 318.828V416.246ZM801.425 318.828V416.246H881.131V318.828H801.425Z" fill="white"/>
<path d="M1091.07 416.246C1091.07 420.214 1090.29 423.941 1088.74 427.425C1087.29 430.909 1085.26 433.958 1082.65 436.572C1080.13 439.088 1077.13 441.121 1073.64 442.669C1070.26 444.121 1066.58 444.847 1062.61 444.847H985.808C981.937 444.847 978.259 444.121 974.774 442.669C971.29 441.121 968.241 439.088 965.628 436.572C963.111 433.958 961.079 430.909 959.53 427.425C958.078 423.941 957.352 420.214 957.352 416.246V318.828C957.352 314.859 958.078 311.133 959.53 307.649C961.079 304.164 963.111 301.164 965.628 298.647C968.241 296.034 971.29 294.001 974.774 292.55C978.259 291.001 981.937 290.227 985.808 290.227H1062.61C1066.58 290.227 1070.26 291.001 1073.64 292.55C1077.13 294.001 1080.13 296.034 1082.65 298.647C1085.26 301.164 1087.29 304.164 1088.74 307.649C1090.29 311.133 1091.07 314.859 1091.07 318.828V416.246ZM985.808 318.828V416.246H1062.61V318.828H985.808Z" fill="white"/>
<path d="M1272.55 416.246C1272.55 420.214 1271.77 423.941 1270.22 427.425C1268.77 430.909 1266.74 433.958 1264.13 436.572C1261.61 439.088 1258.61 441.121 1255.12 442.669C1251.74 444.121 1248.06 444.847 1244.09 444.847H1167.29C1163.42 444.847 1159.74 444.121 1156.25 442.669C1152.77 441.121 1149.72 439.088 1147.11 436.572C1144.59 433.958 1142.56 430.909 1141.01 427.425C1139.56 423.941 1138.83 420.214 1138.83 416.246V318.828C1138.83 314.859 1139.56 311.133 1141.01 307.649C1142.56 304.164 1144.59 301.164 1147.11 298.647C1149.72 296.034 1152.77 294.001 1156.25 292.55C1159.74 291.001 1163.42 290.227 1167.29 290.227H1244.09C1248.06 290.227 1251.74 291.001 1255.12 292.55C1258.61 294.001 1261.61 296.034 1264.13 298.647C1266.74 301.164 1268.77 304.164 1270.22 307.649C1271.77 311.133 1272.55 314.859 1272.55 318.828V416.246ZM1167.29 318.828V416.246H1244.09V318.828H1167.29Z" fill="white"/>
<path d="M1311.31 290.227H1349.06V242.606H1377.66V290.227H1428.47V318.828H1377.66V416.246H1428.47V444.847H1377.66C1373.79 444.847 1370.11 444.121 1366.62 442.669C1363.14 441.121 1360.09 439.088 1357.48 436.572C1354.86 433.958 1352.78 430.909 1351.24 427.425C1349.78 423.941 1349.06 420.214 1349.06 416.246V318.828H1311.31V290.227Z" fill="white"/>
<path d="M348.228 529.722V595.309H338.852V529.722H348.228Z" fill="white"/>
<path d="M351.986 529.722H404.446V539.098H382.904V595.309H373.528V539.098H351.986V529.722Z" fill="white"/>
<path d="M452.226 544.165C458.408 544.165 463.372 546.32 467.119 550.628C470.928 554.937 472.833 561.432 472.833 570.112C472.833 575.794 471.959 580.603 470.21 584.537C468.524 588.409 466.12 591.344 462.998 593.342C459.938 595.278 456.316 596.246 452.132 596.246C449.572 596.246 447.292 595.902 445.294 595.215C443.296 594.529 441.578 593.654 440.142 592.593C438.768 591.469 437.582 590.251 436.583 588.94H436.021C436.145 590.001 436.27 591.344 436.395 592.967C436.52 594.591 436.583 595.996 436.583 597.183V617.79H428.34V545.102H435.084L436.208 551.94H436.583C437.582 550.504 438.768 549.192 440.142 548.006C441.578 546.819 443.264 545.882 445.2 545.196C447.199 544.509 449.54 544.165 452.226 544.165ZM450.727 551.097C447.355 551.097 444.638 551.752 442.578 553.064C440.517 554.313 439.018 556.217 438.081 558.778C437.145 561.338 436.645 564.585 436.583 568.519V570.112C436.583 574.233 437.02 577.73 437.894 580.603C438.768 583.475 440.236 585.661 442.296 587.16C444.42 588.659 447.292 589.408 450.914 589.408C453.974 589.408 456.472 588.565 458.408 586.879C460.406 585.193 461.874 582.913 462.81 580.041C463.809 577.106 464.309 573.765 464.309 570.018C464.309 564.273 463.185 559.683 460.937 556.249C458.751 552.814 455.348 551.097 450.727 551.097Z" fill="white"/>
<path d="M497.865 544.165C502.174 544.165 505.858 545.102 508.918 546.975C512.04 548.849 514.413 551.503 516.037 554.937C517.723 558.309 518.566 562.275 518.566 566.833V571.798H484.189C484.314 577.481 485.75 581.821 488.498 584.818C491.308 587.753 495.211 589.221 500.207 589.221C503.391 589.221 506.202 588.94 508.637 588.378C511.135 587.753 513.695 586.879 516.318 585.755V592.967C513.758 594.091 511.229 594.903 508.731 595.403C506.233 595.965 503.267 596.246 499.832 596.246C495.086 596.246 490.871 595.278 487.186 593.342C483.565 591.406 480.723 588.534 478.663 584.724C476.664 580.853 475.665 576.138 475.665 570.58C475.665 565.085 476.571 560.37 478.381 556.436C480.255 552.502 482.846 549.473 486.156 547.35C489.528 545.227 493.431 544.165 497.865 544.165ZM497.771 550.909C493.837 550.909 490.715 552.19 488.404 554.75C486.156 557.248 484.814 560.745 484.376 565.241H509.948C509.948 562.368 509.511 559.871 508.637 557.747C507.763 555.624 506.42 553.969 504.609 552.783C502.861 551.534 500.581 550.909 497.771 550.909Z" fill="white"/>
<path d="M591.952 545.102V595.309H523.854V545.102H532.097V588.378H553.735V545.102H561.978V588.378H583.709V545.102H591.952Z" fill="white"/>
<path d="M619.907 544.165C624.216 544.165 627.9 545.102 630.96 546.975C634.083 548.849 636.455 551.503 638.079 554.937C639.765 558.309 640.608 562.275 640.608 566.833V571.798H606.231C606.356 577.481 607.792 581.821 610.54 584.818C613.35 587.753 617.253 589.221 622.249 589.221C625.434 589.221 628.244 588.94 630.679 588.378C633.177 587.753 635.737 586.879 638.36 585.755V592.967C635.8 594.091 633.271 594.903 630.773 595.403C628.275 595.965 625.309 596.246 621.874 596.246C617.128 596.246 612.913 595.278 609.229 593.342C605.607 591.406 602.765 588.534 600.705 584.724C598.706 580.853 597.707 576.138 597.707 570.58C597.707 565.085 598.613 560.37 600.424 556.436C602.297 552.502 604.889 549.473 608.198 547.35C611.57 545.227 615.473 544.165 619.907 544.165ZM619.813 550.909C615.879 550.909 612.757 552.19 610.446 554.75C608.198 557.248 606.856 560.745 606.419 565.241H631.991C631.991 562.368 631.553 559.871 630.679 557.747C629.805 555.624 628.462 553.969 626.651 552.783C624.903 551.534 622.624 550.909 619.813 550.909Z" fill="white"/>
<path d="M654.139 545.102V565.99H681.397V545.102H689.64V595.309H681.397V572.922H654.139V595.309H645.896V545.102H654.139Z" fill="white"/>
<path d="M705.819 575.732C705.819 576.294 705.788 577.106 705.725 578.167C705.725 579.167 705.694 580.259 705.631 581.446C705.569 582.57 705.507 583.663 705.444 584.724C705.382 585.724 705.319 586.535 705.257 587.16L732.14 545.102H742.257V595.309H734.576V565.709C734.576 564.71 734.576 563.399 734.576 561.775C734.638 560.152 734.7 558.559 734.763 556.998C734.825 555.374 734.888 554.157 734.95 553.345L708.254 595.309H698.044V545.102H705.819V575.732Z" fill="white"/>
<path d="M753.832 595.309H744.278L758.609 574.233C756.674 573.734 754.8 572.953 752.989 571.892C751.178 570.768 749.711 569.238 748.587 567.302C747.463 565.303 746.901 562.837 746.901 559.902C746.901 555.093 748.524 551.44 751.771 548.942C755.019 546.382 759.327 545.102 764.698 545.102H787.179V595.309H778.936V575.357H766.759L753.832 595.309ZM754.863 559.995C754.863 562.868 755.924 565.022 758.047 566.459C760.233 567.833 763.262 568.519 767.133 568.519H778.936V551.94H765.541C761.732 551.94 758.984 552.689 757.298 554.188C755.674 555.687 754.863 557.622 754.863 559.995Z" fill="white"/>
<path d="M853.441 545.102V588.378H860.747V612.732H852.785V595.309H817.846V612.732H809.978V588.378H814.006C816.878 584.381 819.251 580.041 821.125 575.357C823.061 570.611 824.497 565.678 825.434 560.557C826.433 555.374 826.964 550.222 827.026 545.102H853.441ZM834.332 551.565C834.083 555.811 833.427 560.214 832.365 564.773C831.304 569.269 829.93 573.578 828.244 577.699C826.62 581.821 824.715 585.38 822.53 588.378H845.479V551.565H834.332Z" fill="white"/>
<path d="M901.312 595.309H892.975V551.94H878.175C877.551 559.871 876.77 566.646 875.833 572.266C874.897 577.824 873.71 582.351 872.274 585.848C870.838 589.345 869.12 591.906 867.122 593.529C865.124 595.153 862.782 595.965 860.097 595.965C859.285 595.965 858.473 595.902 857.661 595.778C856.912 595.715 856.287 595.559 855.788 595.309V589.127C856.163 589.252 856.568 589.345 857.006 589.408C857.443 589.47 857.88 589.502 858.317 589.502C859.691 589.502 860.94 588.94 862.064 587.816C863.188 586.691 864.187 584.974 865.061 582.664C865.998 580.353 866.841 577.449 867.59 573.952C868.34 570.393 868.995 566.209 869.557 561.4C870.119 556.592 870.619 551.159 871.056 545.102H901.312V595.309Z" fill="white"/>
<path d="M912.845 595.309H903.29L917.622 574.233C915.686 573.734 913.813 572.953 912.002 571.892C910.191 570.768 908.723 569.238 907.599 567.302C906.475 565.303 905.913 562.837 905.913 559.902C905.913 555.093 907.537 551.44 910.784 548.942C914.031 546.382 918.34 545.102 923.711 545.102H946.191V595.309H937.948V575.357H925.771L912.845 595.309ZM913.875 559.995C913.875 562.868 914.937 565.022 917.06 566.459C919.246 567.833 922.274 568.519 926.146 568.519H937.948V551.94H924.554C920.744 551.94 917.997 552.689 916.311 554.188C914.687 555.687 913.875 557.622 913.875 559.995Z" fill="white"/>
<path d="M972.55 565.147C972.55 557.841 973.268 551.628 974.705 546.507C976.203 541.324 978.483 537.202 981.542 534.142C984.665 531.02 988.661 528.928 993.532 527.867C997.591 526.992 1001.56 526.212 1005.43 525.525C1009.3 524.838 1012.92 524.213 1016.29 523.651L1017.7 530.864C1016.08 531.114 1014.26 531.426 1012.27 531.801C1010.27 532.113 1008.24 532.456 1006.18 532.831C1004.12 533.143 1002.12 533.487 1000.18 533.861C998.309 534.174 996.655 534.486 995.218 534.798C993.158 535.235 991.315 535.985 989.692 537.046C988.068 538.045 986.663 539.419 985.477 541.168C984.353 542.916 983.447 545.071 982.76 547.631C982.073 550.191 981.667 553.22 981.542 556.717H982.105C982.979 555.53 984.165 554.313 985.664 553.064C987.225 551.815 989.067 550.753 991.19 549.879C993.376 549.005 995.843 548.568 998.59 548.568C1002.96 548.568 1006.58 549.536 1009.46 551.471C1012.39 553.345 1014.58 555.968 1016.01 559.34C1017.51 562.712 1018.26 566.646 1018.26 571.142C1018.26 576.7 1017.29 581.352 1015.36 585.099C1013.42 588.846 1010.74 591.656 1007.3 593.529C1003.87 595.34 999.871 596.246 995.312 596.246C991.877 596.246 988.755 595.59 985.945 594.279C983.135 592.905 980.731 590.907 978.732 588.284C976.734 585.661 975.204 582.414 974.143 578.542C973.081 574.67 972.55 570.205 972.55 565.147ZM995.968 589.408C998.715 589.408 1001.09 588.846 1003.09 587.722C1005.15 586.598 1006.74 584.756 1007.86 582.195C1008.99 579.635 1009.55 576.232 1009.55 571.985C1009.55 566.865 1008.58 562.837 1006.65 559.902C1004.77 556.904 1001.65 555.406 997.279 555.406C994.531 555.406 992.034 556.03 989.785 557.279C987.537 558.465 985.664 559.839 984.165 561.4C982.666 562.962 981.605 564.273 980.98 565.335C980.98 568.395 981.199 571.361 981.636 574.233C982.073 577.106 982.823 579.697 983.884 582.008C985.008 584.256 986.538 586.067 988.474 587.441C990.472 588.752 992.97 589.408 995.968 589.408Z" fill="white"/>
<path d="M1031.53 575.732C1031.53 576.294 1031.5 577.106 1031.43 578.167C1031.43 579.167 1031.4 580.259 1031.34 581.446C1031.28 582.57 1031.22 583.663 1031.15 584.724C1031.09 585.724 1031.03 586.535 1030.97 587.16L1057.85 545.102H1067.97V595.309H1060.28V565.709C1060.28 564.71 1060.28 563.399 1060.28 561.775C1060.35 560.152 1060.41 558.559 1060.47 556.998C1060.53 555.374 1060.6 554.157 1060.66 553.345L1033.96 595.309H1023.75V545.102H1031.53V575.732Z" fill="white"/>
<path d="M1089.66 544.165C1093.47 544.165 1096.78 544.696 1099.59 545.758C1102.4 546.757 1104.58 548.255 1106.14 550.254C1107.7 552.19 1108.49 554.563 1108.49 557.373C1108.49 560.433 1107.64 562.868 1105.96 564.679C1104.27 566.427 1101.96 567.708 1099.02 568.519V568.894C1101.02 569.456 1102.87 570.237 1104.55 571.236C1106.24 572.235 1107.58 573.546 1108.58 575.17C1109.64 576.794 1110.17 578.886 1110.17 581.446C1110.17 584.194 1109.39 586.691 1107.83 588.94C1106.33 591.188 1103.99 592.967 1100.8 594.279C1097.68 595.59 1093.65 596.246 1088.72 596.246C1086.35 596.246 1084.07 596.121 1081.88 595.871C1079.76 595.621 1077.82 595.247 1076.08 594.747C1074.39 594.248 1072.89 593.654 1071.58 592.967V585.567C1073.7 586.567 1076.2 587.472 1079.07 588.284C1082.01 589.096 1085.19 589.502 1088.63 589.502C1091.13 589.502 1093.37 589.221 1095.37 588.659C1097.43 588.097 1099.06 587.222 1100.24 586.036C1101.43 584.787 1102.02 583.101 1102.02 580.978C1102.02 579.042 1101.49 577.481 1100.43 576.294C1099.37 575.045 1097.78 574.108 1095.65 573.484C1093.59 572.859 1090.94 572.547 1087.69 572.547H1080.95V565.803H1086.38C1090.69 565.803 1094.12 565.241 1096.68 564.117C1099.31 562.93 1100.62 560.932 1100.62 558.122C1100.62 555.749 1099.62 553.969 1097.62 552.783C1095.68 551.596 1092.87 551.003 1089.19 551.003C1086.44 551.003 1084.01 551.284 1081.88 551.846C1079.82 552.346 1077.54 553.126 1075.05 554.188L1072.14 547.631C1074.83 546.444 1077.64 545.57 1080.57 545.008C1083.51 544.446 1086.54 544.165 1089.66 544.165Z" fill="white"/>
<path d="M1123.12 545.102V565.99H1150.38V545.102H1158.62V595.309H1150.38V572.922H1123.12V595.309H1114.88V545.102H1123.12Z" fill="white"/>
<path d="M1186.41 544.165C1190.72 544.165 1194.41 545.102 1197.47 546.975C1200.59 548.849 1202.96 551.503 1204.59 554.937C1206.27 558.309 1207.12 562.275 1207.12 566.833V571.798H1172.74C1172.86 577.481 1174.3 581.821 1177.05 584.818C1179.86 587.753 1183.76 589.221 1188.76 589.221C1191.94 589.221 1194.75 588.94 1197.19 588.378C1199.68 587.753 1202.25 586.879 1204.87 585.755V592.967C1202.31 594.091 1199.78 594.903 1197.28 595.403C1194.78 595.965 1191.82 596.246 1188.38 596.246C1183.64 596.246 1179.42 595.278 1175.74 593.342C1172.11 591.406 1169.27 588.534 1167.21 584.724C1165.21 580.853 1164.21 576.138 1164.21 570.58C1164.21 565.085 1165.12 560.37 1166.93 556.436C1168.8 552.502 1171.4 549.473 1174.71 547.35C1178.08 545.227 1181.98 544.165 1186.41 544.165ZM1186.32 550.909C1182.39 550.909 1179.26 552.19 1176.95 554.75C1174.71 557.248 1173.36 560.745 1172.93 565.241H1198.5C1198.5 562.368 1198.06 559.871 1197.19 557.747C1196.31 555.624 1194.97 553.969 1193.16 552.783C1191.41 551.534 1189.13 550.909 1186.32 550.909Z" fill="white"/>
<path d="M1232.54 596.246C1228.11 596.246 1224.14 595.34 1220.65 593.529C1217.21 591.718 1214.5 588.908 1212.5 585.099C1210.56 581.29 1209.59 576.419 1209.59 570.487C1209.59 564.304 1210.62 559.277 1212.68 555.406C1214.75 551.534 1217.52 548.693 1221.02 546.882C1224.58 545.071 1228.61 544.165 1233.1 544.165C1235.67 544.165 1238.13 544.446 1240.5 545.008C1242.88 545.508 1244.81 546.132 1246.31 546.882L1243.78 553.72C1242.28 553.157 1240.54 552.627 1238.54 552.127C1236.54 551.628 1234.67 551.378 1232.92 551.378C1229.55 551.378 1226.77 552.096 1224.58 553.532C1222.4 554.968 1220.77 557.092 1219.71 559.902C1218.65 562.712 1218.12 566.209 1218.12 570.393C1218.12 574.389 1218.65 577.793 1219.71 580.603C1220.77 583.413 1222.36 585.536 1224.49 586.972C1226.61 588.409 1229.26 589.127 1232.45 589.127C1235.2 589.127 1237.6 588.846 1239.66 588.284C1241.79 587.722 1243.72 587.035 1245.47 586.223V593.529C1243.78 594.404 1241.91 595.059 1239.85 595.496C1237.85 595.996 1235.42 596.246 1232.54 596.246Z" fill="white"/>
<path d="M1268.93 544.259C1275.05 544.259 1279.58 545.601 1282.51 548.287C1285.45 550.972 1286.92 555.249 1286.92 561.119V595.309H1280.92L1279.33 588.19H1278.95C1277.52 590.001 1276.02 591.531 1274.46 592.78C1272.96 593.967 1271.21 594.841 1269.21 595.403C1267.28 595.965 1264.9 596.246 1262.09 596.246C1259.1 596.246 1256.38 595.715 1253.94 594.653C1251.57 593.592 1249.7 591.968 1248.32 589.783C1246.95 587.535 1246.26 584.724 1246.26 581.352C1246.26 576.356 1248.23 572.516 1252.16 569.831C1256.1 567.083 1262.16 565.584 1270.34 565.335L1278.86 565.054V562.056C1278.86 557.872 1277.95 554.968 1276.14 553.345C1274.33 551.721 1271.77 550.909 1268.46 550.909C1265.84 550.909 1263.34 551.315 1260.97 552.127C1258.6 552.876 1256.38 553.751 1254.32 554.75L1251.79 548.568C1253.97 547.381 1256.57 546.382 1259.56 545.57C1262.56 544.696 1265.68 544.259 1268.93 544.259ZM1271.37 571.049C1265.12 571.298 1260.78 572.297 1258.35 574.046C1255.97 575.794 1254.79 578.261 1254.79 581.446C1254.79 584.256 1255.63 586.317 1257.32 587.628C1259.06 588.94 1261.28 589.595 1263.97 589.595C1268.21 589.595 1271.74 588.44 1274.55 586.129C1277.36 583.756 1278.77 580.135 1278.77 575.264V570.768L1271.37 571.049Z" fill="white"/>
</svg>
